<?xml version="1.0" encoding="utf-8"?>
<!-- Svg Vector Icons : http://www.onlinewebfonts.com/icon -->
<!DOCTYPE svg PUBLIC "-//W3C//DTD SVG 1.1//EN" "http://www.w3.org/Graphics/SVG/1.1/DTD/svg11.dtd">
<svg version="1.1" xmlns="http://www.w3.org/2000/svg" xmlns:xlink="http://www.w3.org/1999/xlink" x="0px" y="0px" viewBox="0 0 1000 1000" enable-background="new 0 0 1000 1000" xml:space="preserve">
<metadata> Svg Vector Icons : http://www.onlinewebfonts.com/icon </metadata>
<g><path d="M355.1,137.7C355.1,67.2,412.3,10,482.9,10c70.5,0,127.7,57.2,127.7,127.7c0,70.5-57.2,127.7-127.7,127.7C412.3,265.4,355.1,208.3,355.1,137.7z M761.2,520.9L761.2,520.9c0-57.9,46.9-104.8,104.8-104.8S970.8,463,970.8,520.9l0,0c0,57.9-46.9,104.8-104.8,104.8S761.2,578.8,761.2,520.9z M658.9,791.8c0-52.4,42.5-94.9,94.9-94.9c52.4,0,94.9,42.5,94.9,94.9c0,52.4-42.5,94.9-94.9,94.9C701.4,886.7,658.9,844.2,658.9,791.8z M396.9,904c0-47.5,38.5-86,86-86s86,38.5,86,86c0,47.5-38.5,86-86,86S396.9,951.5,396.9,904L396.9,904z M134.1,791.8c0-43,34.9-77.8,77.8-77.8c43,0,77.8,34.9,77.8,77.8c0,43-34.9,77.8-77.8,77.8C168.9,869.7,134.1,834.8,134.1,791.8z M29.2,520.9c0-38.9,31.6-70.5,70.5-70.5c38.9,0,70.5,31.6,70.5,70.5s-31.6,70.5-70.5,70.5C60.8,591.4,29.2,559.8,29.2,520.9z M148.1,250L148.1,250c0-35.3,28.6-63.9,63.9-63.9c35.3,0,63.9,28.6,63.9,63.9l0,0c0,35.3-28.6,63.9-63.9,63.9C176.7,313.8,148.1,285.2,148.1,250z M869.5,250c0,63.9-51.8,115.7-115.7,115.7S638.1,313.8,638.1,250s51.8-115.7,115.7-115.7C817.7,134.3,869.5,186.1,869.5,250z"/></g>
</svg>